<?xml version="1.0"?>
<svg xmlns="http://www.w3.org/2000/svg" xmlns:xlink="http://www.w3.org/1999/xlink" version="1.1" id="Capa_1" x="0px" y="0px" viewBox="0 0 297.421 297.421" style="enable-background:new 0 0 297.421 297.421;" xml:space="preserve" width="512px" height="512px"><g><g>
	<path d="M203.877,71.048c0-14.648-11.844-26.048-26.494-26.048h-17.506V0h-25v45h-15.842c-14.645,0-27.158,11.399-27.158,26.048V94   h112V71.048z" data-original="#000000" class="active-path" data-old_color="#000000" fill="#180E54"/>
	<path d="M63.86,224.392c0-12.193-14.702-29.543-14.702-29.543s-14.705,17.35-14.705,29.543c0,8.118,6.586,14.705,14.705,14.705   C57.276,239.097,63.86,232.51,63.86,224.392z" data-original="#000000" class="active-path" data-old_color="#000000" fill="#180E54"/>
	<path d="M114.642,224.392c0-12.193-14.702-29.543-14.702-29.543s-14.705,17.35-14.705,29.543c0,8.118,6.586,14.705,14.705,14.705   S114.642,232.51,114.642,224.392z" data-original="#000000" class="active-path" data-old_color="#000000" fill="#180E54"/>
	<path d="M164.42,224.392c0-12.193-14.704-29.543-14.704-29.543s-14.705,17.35-14.705,29.543c0,8.118,6.586,14.705,14.705,14.705   C157.835,239.097,164.42,232.51,164.42,224.392z" data-original="#000000" class="active-path" data-old_color="#000000" fill="#180E54"/>
	<path d="M196.979,194.849c0,0-14.703,17.35-14.703,29.543c0,8.118,6.585,14.705,14.703,14.705c8.119,0,14.704-6.587,14.704-14.705   C211.683,212.198,196.979,194.849,196.979,194.849z" data-original="#000000" class="active-path" data-old_color="#000000" fill="#180E54"/>
	<path d="M233.561,224.392c0,8.118,6.585,14.705,14.702,14.705c8.12,0,14.705-6.587,14.705-14.705   c0-12.193-14.705-29.543-14.705-29.543S233.561,212.198,233.561,224.392z" data-original="#000000" class="active-path" data-old_color="#000000" fill="#180E54"/>
	<path d="M59.089,282.716c0,8.118,6.586,14.705,14.705,14.705c8.118,0,14.703-6.587,14.703-14.705   c0-12.194-14.703-29.541-14.703-29.541S59.089,270.522,59.089,282.716z" data-original="#000000" class="active-path" data-old_color="#000000" fill="#180E54"/>
	<path d="M109.872,282.716c0,8.118,6.586,14.705,14.705,14.705c8.12,0,14.703-6.587,14.703-14.705   c0-12.194-14.703-29.541-14.703-29.541S109.872,270.522,109.872,282.716z" data-original="#000000" class="active-path" data-old_color="#000000" fill="#180E54"/>
	<path d="M159.65,282.716c0,8.118,6.585,14.705,14.703,14.705c8.12,0,14.704-6.587,14.704-14.705   c0-12.194-14.704-29.541-14.704-29.541S159.65,270.522,159.65,282.716z" data-original="#000000" class="active-path" data-old_color="#000000" fill="#180E54"/>
	<path d="M207.917,282.716c0,8.118,6.587,14.705,14.704,14.705c8.119,0,14.704-6.587,14.704-14.705   c0-12.194-14.704-29.541-14.704-29.541S207.917,270.522,207.917,282.716z" data-original="#000000" class="active-path" data-old_color="#000000" fill="#180E54"/>
	<path d="M260.877,135.19c0-14.648-11.384-26.19-26.03-26.19H61.574c-14.646,0-26.696,11.542-26.696,26.19V178h226V135.19z" data-original="#000000" class="active-path" data-old_color="#000000" fill="#180E54"/>
</g><script xmlns="" class="active-path" style=""/></g> </svg>
